<svg width="60" height="50" viewBox="0 0 60 50" fill="none" xmlns="http://www.w3.org/2000/svg">
<path d="M18.595 44.742C16.0364 44.741 13.5572 43.8537 11.579 42.231C8.26786 39.5131 5.60134 36.094 3.7719 32.2206C1.94247 28.3471 0.995729 24.1158 1.00001 19.832H59C59.0042 24.133 58.0498 28.3809 56.2062 32.2668C54.3625 36.1527 51.676 39.5788 48.342 42.296C46.3568 43.9141 43.8721 44.794 41.311 44.786L23.742 44.752" stroke="white" stroke-width="2" stroke-linecap="round" stroke-linejoin="round"/>
<path d="M18.595 44.742V47.173C18.595 47.3909 18.6379 47.6066 18.7213 47.8079C18.8047 48.0092 18.9269 48.192 19.0809 48.3461C19.235 48.5001 19.4179 48.6224 19.6192 48.7057C19.8204 48.7891 20.0362 48.832 20.254 48.832H39.994C40.4339 48.8317 40.8556 48.6568 41.1665 48.3457C41.4774 48.0347 41.652 47.6128 41.652 47.173V44.785" stroke="white" stroke-width="2" stroke-linecap="round" stroke-linejoin="round"/>
<path d="M45.297 12.664C50.356 12.664 54.456 10.054 54.456 6.832C54.456 3.61 50.356 1 45.297 1C40.599 1 36.731 2.355 36.204 5.257L7.79102 4.446C7.26058 4.446 6.75187 4.65672 6.3768 5.03179C6.00173 5.40686 5.79102 5.91557 5.79102 6.446C5.79102 6.97643 6.00173 7.48514 6.3768 7.86021C6.75187 8.23529 7.26058 8.446 7.79102 8.446L36.209 8.417C36.744 11.314 40.605 12.664 45.297 12.664V12.664Z" stroke="white" stroke-width="2" stroke-linecap="round" stroke-linejoin="round"/>
</svg>
